<mxfile host="Electron" modified="2023-08-18T18:19:34.264Z" agent="Mozilla/5.0 (X11; Linux x86_64) AppleWebKit/537.36 (KHTML, like Gecko) draw.io/21.6.8 Chrome/114.0.5735.289 Electron/25.5.0 Safari/537.36" etag="How-ns-IYFsS5nBywSdH" version="21.6.8" type="device">
  <diagram name="Page-1" id="z9clTre_lscxgogZnKVf">
    <mxGraphModel dx="1364" dy="843" grid="1" gridSize="10" guides="1" tooltips="1" connect="1" arrows="1" fold="1" page="1" pageScale="1" pageWidth="850" pageHeight="1100" math="0" shadow="0">
      <root>
        <mxCell id="0" />
        <mxCell id="1" parent="0" />
        <mxCell id="akpPnj3JIk4HC8i-5JJ6-6" value="" style="edgeStyle=orthogonalEdgeStyle;rounded=0;orthogonalLoop=1;jettySize=auto;html=1;" parent="1" source="akpPnj3JIk4HC8i-5JJ6-3" target="akpPnj3JIk4HC8i-5JJ6-5" edge="1">
          <mxGeometry relative="1" as="geometry" />
        </mxCell>
        <mxCell id="akpPnj3JIk4HC8i-5JJ6-3" value="начало&lt;br&gt;имеется формульная ячейка this, в которую пользователь пытается записать формулу formula" style="rounded=1;whiteSpace=wrap;html=1;" parent="1" vertex="1">
          <mxGeometry x="280" y="70" width="250" height="90" as="geometry" />
        </mxCell>
        <mxCell id="akpPnj3JIk4HC8i-5JJ6-4" value="Поиск циклических зависимостей" style="text;html=1;align=center;verticalAlign=middle;resizable=0;points=[];autosize=1;strokeColor=none;fillColor=none;fontSize=17;" parent="1" vertex="1">
          <mxGeometry x="255" y="28" width="290" height="30" as="geometry" />
        </mxCell>
        <mxCell id="eGRahKqvhWwFgilbKnpP-13" value="" style="edgeStyle=orthogonalEdgeStyle;rounded=0;orthogonalLoop=1;jettySize=auto;html=1;" edge="1" parent="1" source="akpPnj3JIk4HC8i-5JJ6-5" target="eGRahKqvhWwFgilbKnpP-12">
          <mxGeometry relative="1" as="geometry" />
        </mxCell>
        <mxCell id="akpPnj3JIk4HC8i-5JJ6-5" value="&lt;span style=&quot;background-color: initial;&quot;&gt;заводится дек ячеек&amp;nbsp;&lt;/span&gt;&lt;span style=&quot;background-color: initial;&quot;&gt;к посещению;&amp;nbsp;&lt;/span&gt;&lt;span style=&quot;background-color: initial;&quot;&gt;в него функцией&amp;nbsp;&lt;/span&gt;&lt;span style=&quot;background-color: initial;&quot;&gt;&lt;br&gt;&lt;/span&gt;add_cells(from, to);&lt;div style=&quot;&quot;&gt;&lt;span style=&quot;background-color: initial;&quot;&gt;добавляются ячейки из формулы, которую пользователь пытается записать в ячейку,&lt;/span&gt;&lt;/div&gt;&lt;div style=&quot;&quot;&gt;&lt;br&gt;&lt;/div&gt;&lt;div style=&quot;&quot;&gt;add_cells(formula-&amp;gt;GetReferencedCells(), дек);&lt;/div&gt;&lt;div style=&quot;&quot;&gt;&lt;br&gt;&lt;/div&gt;&lt;div style=&quot;&quot;&gt;заводится множество посещенных ячеек, которое инициализируется ячейкой this&lt;/div&gt;" style="shape=parallelogram;perimeter=parallelogramPerimeter;whiteSpace=wrap;html=1;fixedSize=1;align=center;" parent="1" vertex="1">
          <mxGeometry x="218.91" y="200" width="372.18" height="150" as="geometry" />
        </mxCell>
        <mxCell id="eGRahKqvhWwFgilbKnpP-2" value="" style="edgeStyle=orthogonalEdgeStyle;rounded=0;orthogonalLoop=1;jettySize=auto;html=1;" edge="1" parent="1" source="akpPnj3JIk4HC8i-5JJ6-7" target="eGRahKqvhWwFgilbKnpP-1">
          <mxGeometry relative="1" as="geometry" />
        </mxCell>
        <mxCell id="akpPnj3JIk4HC8i-5JJ6-7" value="забираем первую ячейку cell из дека" style="whiteSpace=wrap;html=1;" parent="1" vertex="1">
          <mxGeometry x="313.75" y="560" width="182.5" height="90" as="geometry" />
        </mxCell>
        <mxCell id="eGRahKqvhWwFgilbKnpP-4" value="" style="edgeStyle=orthogonalEdgeStyle;rounded=0;orthogonalLoop=1;jettySize=auto;html=1;" edge="1" parent="1" source="eGRahKqvhWwFgilbKnpP-1" target="eGRahKqvhWwFgilbKnpP-3">
          <mxGeometry relative="1" as="geometry" />
        </mxCell>
        <mxCell id="eGRahKqvhWwFgilbKnpP-5" value="да" style="edgeLabel;html=1;align=center;verticalAlign=middle;resizable=0;points=[];fontSize=17;" vertex="1" connectable="0" parent="eGRahKqvhWwFgilbKnpP-4">
          <mxGeometry x="-0.1745" y="3" relative="1" as="geometry">
            <mxPoint x="-4" y="-3" as="offset" />
          </mxGeometry>
        </mxCell>
        <mxCell id="eGRahKqvhWwFgilbKnpP-9" value="" style="edgeStyle=orthogonalEdgeStyle;rounded=0;orthogonalLoop=1;jettySize=auto;html=1;" edge="1" parent="1" source="eGRahKqvhWwFgilbKnpP-1" target="eGRahKqvhWwFgilbKnpP-8">
          <mxGeometry relative="1" as="geometry" />
        </mxCell>
        <mxCell id="eGRahKqvhWwFgilbKnpP-10" value="нет" style="edgeLabel;html=1;align=center;verticalAlign=middle;resizable=0;points=[];fontSize=17;" vertex="1" connectable="0" parent="eGRahKqvhWwFgilbKnpP-9">
          <mxGeometry x="-0.4957" y="-5" relative="1" as="geometry">
            <mxPoint x="4" y="-5" as="offset" />
          </mxGeometry>
        </mxCell>
        <mxCell id="eGRahKqvhWwFgilbKnpP-1" value="ячейка уже посещена?" style="rhombus;whiteSpace=wrap;html=1;" vertex="1" parent="1">
          <mxGeometry x="307.5" y="720" width="195" height="140" as="geometry" />
        </mxCell>
        <mxCell id="eGRahKqvhWwFgilbKnpP-7" value="" style="edgeStyle=orthogonalEdgeStyle;rounded=0;orthogonalLoop=1;jettySize=auto;html=1;" edge="1" parent="1" source="eGRahKqvhWwFgilbKnpP-3" target="eGRahKqvhWwFgilbKnpP-6">
          <mxGeometry relative="1" as="geometry" />
        </mxCell>
        <mxCell id="eGRahKqvhWwFgilbKnpP-3" value="return true;&lt;br&gt;цикл есть" style="whiteSpace=wrap;html=1;" vertex="1" parent="1">
          <mxGeometry x="80" y="765" width="120" height="50" as="geometry" />
        </mxCell>
        <mxCell id="eGRahKqvhWwFgilbKnpP-6" value="конец" style="rounded=1;whiteSpace=wrap;html=1;" vertex="1" parent="1">
          <mxGeometry x="80" y="850" width="120" height="60" as="geometry" />
        </mxCell>
        <mxCell id="eGRahKqvhWwFgilbKnpP-21" style="edgeStyle=orthogonalEdgeStyle;rounded=0;orthogonalLoop=1;jettySize=auto;html=1;exitX=0.5;exitY=0;exitDx=0;exitDy=0;entryX=1;entryY=0.5;entryDx=0;entryDy=0;" edge="1" parent="1" source="eGRahKqvhWwFgilbKnpP-8" target="eGRahKqvhWwFgilbKnpP-12">
          <mxGeometry relative="1" as="geometry" />
        </mxCell>
        <mxCell id="eGRahKqvhWwFgilbKnpP-8" value="кладем ячейку в посещенные;&lt;br&gt;&lt;br&gt;добавляем&lt;br&gt;add_cells(cell-&amp;gt;GetReferencedCells(), дек)&lt;br&gt;если в ячейке не формула, вернется пустой контейнер" style="whiteSpace=wrap;html=1;" vertex="1" parent="1">
          <mxGeometry x="570" y="745" width="248.91" height="90" as="geometry" />
        </mxCell>
        <mxCell id="eGRahKqvhWwFgilbKnpP-15" value="" style="edgeStyle=orthogonalEdgeStyle;rounded=0;orthogonalLoop=1;jettySize=auto;html=1;" edge="1" parent="1" source="eGRahKqvhWwFgilbKnpP-12" target="eGRahKqvhWwFgilbKnpP-14">
          <mxGeometry relative="1" as="geometry" />
        </mxCell>
        <mxCell id="eGRahKqvhWwFgilbKnpP-16" value="да" style="edgeLabel;html=1;align=center;verticalAlign=middle;resizable=0;points=[];fontSize=17;" vertex="1" connectable="0" parent="eGRahKqvhWwFgilbKnpP-15">
          <mxGeometry x="0.1272" y="2" relative="1" as="geometry">
            <mxPoint x="11" y="-2" as="offset" />
          </mxGeometry>
        </mxCell>
        <mxCell id="eGRahKqvhWwFgilbKnpP-17" value="" style="edgeStyle=orthogonalEdgeStyle;rounded=0;orthogonalLoop=1;jettySize=auto;html=1;" edge="1" parent="1" source="eGRahKqvhWwFgilbKnpP-12" target="akpPnj3JIk4HC8i-5JJ6-7">
          <mxGeometry relative="1" as="geometry" />
        </mxCell>
        <mxCell id="eGRahKqvhWwFgilbKnpP-18" value="нет" style="edgeLabel;html=1;align=center;verticalAlign=middle;resizable=0;points=[];fontSize=17;" vertex="1" connectable="0" parent="eGRahKqvhWwFgilbKnpP-17">
          <mxGeometry x="-0.152" y="1" relative="1" as="geometry">
            <mxPoint as="offset" />
          </mxGeometry>
        </mxCell>
        <mxCell id="eGRahKqvhWwFgilbKnpP-12" value="дек пуст?" style="rhombus;whiteSpace=wrap;html=1;" vertex="1" parent="1">
          <mxGeometry x="342.5" y="390" width="125.01" height="110" as="geometry" />
        </mxCell>
        <mxCell id="eGRahKqvhWwFgilbKnpP-19" style="edgeStyle=orthogonalEdgeStyle;rounded=0;orthogonalLoop=1;jettySize=auto;html=1;exitX=0;exitY=0.5;exitDx=0;exitDy=0;entryX=0;entryY=0.5;entryDx=0;entryDy=0;" edge="1" parent="1" source="eGRahKqvhWwFgilbKnpP-14" target="eGRahKqvhWwFgilbKnpP-6">
          <mxGeometry relative="1" as="geometry" />
        </mxCell>
        <mxCell id="eGRahKqvhWwFgilbKnpP-14" value="return false;&lt;br&gt;цикла нет" style="whiteSpace=wrap;html=1;" vertex="1" parent="1">
          <mxGeometry x="160.005" y="415" width="120" height="60" as="geometry" />
        </mxCell>
      </root>
    </mxGraphModel>
  </diagram>
</mxfile>
